<?xml version="1.0" standalone="no"?>
<!DOCTYPE svg PUBLIC "-//W3C//DTD SVG 20010904//EN"
 "http://www.w3.org/TR/2001/REC-SVG-20010904/DTD/svg10.dtd">
<svg version="1.0" xmlns="http://www.w3.org/2000/svg"
 width="70.000000pt" height="70.000000pt" viewBox="0 0 200.000000 200.000000"
 preserveAspectRatio="xMidYMid meet">

<g transform="translate(0.000000,200.000000) scale(0.100000,-0.100000)"
fill="#FFF" stroke="none">
<path d="M712 1243 c-59 -4 -63 -6 -60 -26 2 -14 11 -23 25 -25 20 -3 22 -10
25 -70 3 -65 4 -67 31 -70 l27 -3 0 70 c0 70 1 71 26 71 22 0 25 4 22 27 -3
31 -4 31 -96 26z"/>
<path d="M835 1237 c-3 -7 -5 -52 -3 -98 l3 -84 75 0 75 0 3 53 3 52 -30 0
c-26 0 -31 -4 -31 -25 0 -15 -6 -25 -15 -25 -11 0 -15 16 -17 68 -3 65 -4 67
-31 70 -16 2 -29 -2 -32 -11z"/>
<path d="M442 1148 c3 -92 3 -93 28 -93 22 0 25 5 28 42 3 40 4 42 23 30 17
-10 22 -9 35 7 13 18 14 15 14 -33 0 -51 1 -52 28 -49 l27 3 3 93 3 92 -34 0
c-27 0 -36 -5 -46 -27 l-13 -28 -20 28 c-14 19 -29 27 -49 27 l-30 0 3 -92z"/>
<path d="M330 895 c0 -95 0 -95 25 -95 23 0 25 4 25 48 1 44 2 46 16 27 12
-16 18 -18 34 -7 19 11 20 9 20 -28 0 -38 2 -40 30 -40 l30 0 0 95 0 95 -28 0
c-20 0 -32 -8 -46 -31 l-18 -31 -19 31 c-13 21 -26 31 -44 31 -25 0 -25 0 -25
-95z"/>
<path d="M550 907 c0 -100 9 -112 80 -112 72 0 81 13 78 109 -3 80 -3 81 -30
84 l-28 3 0 -70 c0 -64 -2 -71 -20 -71 -17 0 -19 8 -22 68 -3 65 -4 67 -30 70
l-28 3 0 -84z"/>
<path d="M747 983 c-4 -3 -7 -46 -7 -95 l0 -89 33 3 c27 2 33 8 35 31 2 19 9
27 23 27 14 0 19 -7 19 -30 0 -27 3 -30 31 -30 31 0 31 0 25 43 -12 97 -19
123 -34 135 -16 12 -114 17 -125 5z m83 -58 c0 -8 -4 -15 -10 -15 -5 0 -10 7
-10 15 0 8 5 15 10 15 6 0 10 -7 10 -15z"/>
<path d="M955 948 c-9 -24 -19 -67 -22 -95 l-6 -53 32 0 c24 0 31 4 31 20 0
15 7 20 25 20 18 0 25 -5 25 -20 0 -16 7 -20 31 -20 l31 0 -4 58 c-3 31 -12
74 -21 95 -15 35 -19 37 -60 37 -43 0 -45 -1 -62 -42z m75 -38 c0 -11 -7 -20
-15 -20 -15 0 -21 21 -8 33 12 13 23 7 23 -13z"/>
<path d="M1130 895 l0 -95 75 0 75 0 0 50 c0 47 -2 50 -25 50 -18 0 -26 -7
-31 -25 -3 -14 -12 -25 -20 -25 -11 0 -14 17 -14 70 l0 70 -30 0 -30 0 0 -95z"/>
<path d="M1317 984 c-4 -4 -7 -47 -7 -96 l0 -88 76 0 c72 0 75 1 72 23 -2 18
-10 23 -45 25 -49 4 -59 22 -13 22 25 0 30 4 30 25 0 21 -5 25 -31 25 -17 0
-28 4 -24 10 3 6 24 10 46 10 36 0 40 2 37 23 -3 20 -9 22 -68 25 -36 2 -69 0
-73 -4z"/>
</g>
</svg>
